<?xml version="1.0" encoding="utf-8"?>
<!-- Generator: Adobe Illustrator 24.1.2, SVG Export Plug-In . SVG Version: 6.00 Build 0)  -->
<svg version="1.1" id="Layer_1" xmlns="http://www.w3.org/2000/svg" xmlns:xlink="http://www.w3.org/1999/xlink" x="0px" y="0px"
	 viewBox="0 0 831 165.9" style="enable-background:new 0 0 831 165.9;" xml:space="preserve">
<style type="text/css">
	.st0{fill:#FB6F92;}
	.st1{enable-background:new    ;}
	.st2{fill:#FFE5EC;}
</style>
<path class="st0" d="M49.2,45.5c-4.7,0.2-9.5,0.2-14.2,0.6C29,46.6,23,47.4,17.1,48c-1.6,0.2-3.3,0.4-4.9,0.3c-2-0.1-3.9-2.2-4-4.6
	c-0.1-2.2,1.1-3.9,3.1-4.5c3.8-1,7.6-2.1,11.4-2.6c9.7-1.3,19.4-2.7,29.1-3.5c11.2-0.8,22.4-1,33.6-1.3c1.9,0,3.8,0.7,5.8,1.1
	c2.2,0.4,3,2.2,3.2,3.9c0.3,2.2,0.5,4.5-1.8,6.3c-1.5,1.1-2.9,1.6-4.8,1.5c-3.3-0.1-6.5,0-9.8,0"/>
<path class="st0" d="M96.5,69.7c9.9,0.3,19.8,0.6,29.6,0.9c7.6,0.3,15.2,0.7,22.9,1c4.5,0.2,7.1,3.7,5.4,7.6
	c-0.5,1.2-1.9,2.4-3.1,2.8c-2.2,0.7-4.5,1-6.8,1.1c-6.7,0.3-13.4,0.4-20.2,0.6c-11.5,0.3-22.9,0.7-34.4,0.8c-2,0-4.3-0.4-5.8-1.4
	c-3-2-3.7-5.2-2.6-8.6c0.8-2.4,3.9-4.6,7-4.7C91.2,69.6,93.8,69.7,96.5,69.7L96.5,69.7z"/>
<path class="st0" d="M12,71.6c12.2-0.5,23.6-1.1,35-1.5c6.2-0.2,12.3-0.3,18.5-0.4c3-0.1,5.8,0.8,7.1,3.7c1.3,2.9,1.6,6.2-1.1,8.6
	c-1.4,1.3-3.6,2.4-5.4,2.4c-13.2,0-26.5-0.1-39.7-0.4c-5.5-0.1-10.9,0-16.4-0.3c-1.6-0.1-3.6-0.5-5.2-0.8c-3.3-0.7-5.2-3.3-4.8-6.2
	c0.3-3.1,2.3-4.7,6.2-5C8.4,71.5,10.6,71.6,12,71.6z"/>
<path class="st0" d="M71.3,62.9c-9.4,0-18.8,0.1-28.3-0.1c-1.8,0-3.9-0.5-5.2-1.6c-2.5-2-2-7.4,2.5-8.1c0.8-0.1,1.6-0.4,2.4-0.4
	c7-0.2,13.9-0.4,20.9-0.5c7.6-0.2,15.2-0.4,22.7-0.4c7.5,0.1,14.9,0.5,22.4,0.8c1.6,0.1,3.1,0.3,4.7,0.5c2.1,0.3,3.7,2.6,3.7,5
	c0,2.2-1.9,4.4-4.1,4.6c-2.5,0.2-5,0.4-7.4,0.4"/>
<path class="st0" d="M80.8,13.6c5.8,0.5,11.4,1,17.1,1.5c6.8,0.6,13.7,1.1,20.4,2.1c4,0.6,7.9,2,11.7,3.5c1.9,0.7,3.6,2.2,3.5,4.8
	c-0.1,2-1.1,3.2-3.1,3.1c-3.6-0.2-7.2-0.6-10.8-1.1c-3.4-0.4-6.8-1.2-10.2-1.4c-10-0.6-20-1.3-30-1.5C72,24.5,64.6,25,57.2,25.3
	c-2.7,0.1-4.4-1-5.3-3.5c-0.8-2.1-0.1-5.1,2-6.2c1.7-0.8,3.8-0.9,5.7-1C66.7,14.3,73.7,13.9,80.8,13.6L80.8,13.6z"/>
<path class="st0" d="M70,91.6c8.6,0,17.2,0,25.7,0c3.9,0,6.1,2.2,5.9,5.7c-0.2,2.7-1.4,4.7-5.4,4.7c-10.6,0.2-21.3,0.1-31.9,0.1
	c-6.7,0-13.3-0.1-20-0.2c-3.4-0.1-6.1-2.8-6-5.9c0.1-2.6,1.4-4.3,4-4.5c2.6-0.2,5.2-0.1,7.7-0.1"/>
<path class="st0" d="M72.6,140.7c-7.9,0-16-1-23.6-1.9c-5.2-0.7-10.4-1.5-15.6-2.5c-3.9-0.8-8.7-0.9-10.6-5c-1.2-2.6,2.3-6,5.8-5.5
	c3.5,0.5,7,1,10.5,1.4c3.1,0.4,6.7,0.8,10,1c11.1,0.5,22.2,1,33.4,1.4c3.1,0.1,5.6,1.9,5.7,5.1c0,1.9-0.8,3.9-2.6,4.8
	c-0.9,0.4-1.9,0.6-3,0.7C79.2,140.5,75.9,140.7,72.6,140.7L72.6,140.7z"/>
<path class="st0" d="M84.9,109.9c8.9-0.4,17.8-0.9,26.7-1.3c4.5-0.2,6.8,2.2,6.8,6.6c0,2.8-2.1,4.8-5.6,5.2
	c-3.8,0.5-7.5,0.9-11.3,1.1c-9.7,0.4-19.4,0.7-29.1,0.8c-4,0.1-6.5-2.6-6.6-6.2c-0.1-3.7,2.4-6.4,6.2-6.4"/>
<path class="st0" d="M49,121.6c0,0-3,0-3,0c-3.5-0.8-3.3-0.6-6.8-1.2c-4-0.7-7.9-1.5-11.9-2.2c-4.6-0.8-9.2-1.8-13.8-2.5
	c-3.2-0.5-5.7-2.6-5.5-5c0.2-3.2,2.6-5.1,6.3-4.8c8.8,0.7,17.6,1.5,26.4,2.3c4.3,0.4,8.5,0.8,12.8,1.3c2.1,0.3,4.1,1.3,4.7,3.5
	c1.2,4.9-2.3,8.2-6.9,8.5C50.7,121.5,50,121.6,49,121.6L49,121.6z"/>
<path class="st0" d="M111,33.7c0.4,0,0.7,0.1,1.1,0.1c3.3,0.3,6.7,1,10,1.5c3.6,0.5,7.2,1,10.8,1.7c3.3,0.6,6.6,1.3,9.8,2
	c3,0.7,4.3,2.6,3.9,5.6c-0.3,2.2-2.4,4-4.9,3.8c-8.2-0.7-16.3-1.6-24.5-2.4c-3-0.3-6.1-0.4-9.2-0.6c-2.6-0.2-4.9-2-5.6-4.5
	c-0.7-2.5,0-5.4,2.3-6.5C106.4,33.7,108.9,33.6,111,33.7L111,33.7z"/>
<path class="st0" d="M118.7,91.7c9.4-0.6,18.9-1.3,28.3-1.9c1.4-0.1,3.1,0,4.3,0.6c2.6,1.3,2.6,4.7,0.1,6.1
	c-1.4,0.8-3.1,1.6-4.8,1.8c-4.8,0.6-9.7,0.7-14.5,1.2c-4.3,0.4-8.6,1.1-12.9,1.6c-1.9,0.2-3.8,0.4-5.7,0.3c-2.3-0.2-3.9-2.8-3.8-5.6
	c0.2-2.6,1.8-4.3,4.4-4.3"/>
<path class="st0" d="M108.7,128.3c4.6-0.7,9.1-1.3,13.7-1.9c1.9-0.3,3.8-0.5,5.7-0.5c2.2,0,3.9,1.9,4.1,4.2c0.1,1.9-1.5,4.2-3.7,4.6
	c-5.7,1.2-11.4,2.3-17.2,3.3c-3.2,0.6-6.5,0.9-9.8,1.1c-3,0.2-5.1-1.3-5.4-3.5c-0.4-3.7,1.4-6.5,4.6-7.1c1.3-0.2,2.6-0.3,3.9-0.4"/>
<path class="st0" d="M97.9,7.3c-8.4-0.2-16.8-0.5-25.1-0.5c-6,0-12,0.5-18,0.8c-1.5,0.1-2.6-0.1-2.8-1.9c-0.2-1.8,0.8-2.3,2.2-2.6
	c3.9-1,7.8-2.6,11.8-2.8c7.3-0.4,14.8-0.3,22.1,0.2c4.6,0.4,9.1,2,13.7,3c1.5,0.3,2.1,1.4,1.6,2.5c-0.3,0.7-1.4,1.3-2.3,1.5
	c-1,0.3-2.2,0.1-3.2,0.1C97.9,7.5,97.9,7.4,97.9,7.3L97.9,7.3z"/>
<path class="st0" d="M55.7,146.7c0.1,0,0.1,0,0.2,0c14.2,0.9,28.5,0.9,42.6-0.1c1.1-0.1,2.2-0.1,3.2,0.3s1.7,1.6,1.3,2.6
	c-0.3,0.9-1.4,1.3-2.3,1.6c-15.6,4.9-32.2,5.4-47.7-0.8c-0.3-0.1-0.7-0.3-1-0.6c-0.7-0.8-0.2-2.1,0.7-2.7
	C53.7,146.6,54.7,146.6,55.7,146.7L55.7,146.7z"/>
<path class="st0" d="M130.7,64c-4.6,0-6.8-2.7-5.5-7c0.3-1,1.8-2.2,2.8-2.2c3.6,0,7.2,0.4,10.7,0.7c2,0.2,4.1,0.2,6.1,0.6
	c2.2,0.4,4.5,0.8,6.5,1.6c1.6,0.7,2.4,2.6,1.5,4.2c-0.7,1.2-2.2,2-3.5,2.6c-0.9,0.4-2.1,0.1-3.2,0.1"/>
<path class="st0" d="M10.2,90.1c5.3,0.3,10.6,0.7,15.9,1c3.9,0.2,5,1.3,5,4.9c0,2.6-3.2,4.5-6.2,4.2c-6-0.7-12.1-1.2-18.1-2.1
	c-1.5-0.2-3.3-1.3-4.3-2.4c-1.7-2-0.2-4.9,2.5-5.4c0.2,0,0.5-0.1,0.8-0.1C7.2,90.1,8.7,90.1,10.2,90.1
	C10.2,90.1,10.2,90.1,10.2,90.1z"/>
<path class="st0" d="M11,64.1c-1.8,0-3.7,0.1-5.5,0c-1.9-0.1-3.3-0.9-3.5-3.2c-0.1-2.3,0.9-3.9,3-4.2c6.2-0.9,12.4-1.4,18.6-2.2
	c3.3-0.4,6,2.3,4.8,6.1c-0.7,2.3-2.7,2.7-4.5,2.7"/>
<path class="st0" d="M146.6,110.6c0.4,2.9-1.2,4.2-4,4.9c-3.2,0.8-6.4,1.4-9.6,2c-2.5,0.5-4.8-0.2-6-2.4c-1.1-1.8-1.6-4,0.1-5.9
	c0.6-0.6,1.3-1.4,2.1-1.5c4.2-0.6,8.5-1.2,12.7-1.5C145.3,106,146.6,107.4,146.6,110.6L146.6,110.6z"/>
<path class="st0" d="M137.1,132.3c-0.3,0.1-1.4-0.7-1.7-0.9c-0.5-0.5-0.9-1.2-1-1.9c-0.2-1.1,0.1-2.2,0.3-3.3
	c0.1-0.4,0.2-0.9,0.5-1.2c0.4-0.4,0.9-0.5,1.5-0.7c3.1-0.7,6.1-1.3,9.2-2c0.5-0.1,1.1-0.2,1.6,0c0.6,0.2,1,0.9,1.2,1.6
	c0.4,1.6-0.3,3.4-1.5,4.5s-2.8,1.9-4.3,2.4C140.9,131.5,139,131.8,137.1,132.3L137.1,132.3z"/>
<path class="st0" d="M145,163.7c-11.1-3.2-22.1-7-32.5-12.1c-1.3-0.7-2.7-1.4-3.6-2.5s-1.5-2.9-0.9-4.3c0.6-1.5,2.3-2.4,3.8-2.4
	s3,0.6,4.5,1.2c11,4.6,22.4,9.3,34.4,8.5c4.6-0.3,7.5-0.7,8.1,4.8c0.4,2.9-0.2,7.4-3.1,8.7c-1.4,0.7-3.1,0.3-4.6-0.1
	C149,164.8,147,164.3,145,163.7L145,163.7z"/>
<path class="st0" d="M41,16.6c0.4-0.1,1.8,0.9,2.1,1.1c0.6,0.6,1,1.4,1.1,2.2c0.2,1.3-0.2,2.5-0.6,3.7c-0.2,0.5-0.3,1-0.7,1.4
	c-0.5,0.4-1.2,0.5-1.9,0.6c-4,0.5-8,1-11.9,1.6c-0.7,0.1-1.4,0.2-2-0.1c-0.8-0.3-1.3-1.1-1.4-1.9c-0.3-1.9,0.7-3.8,2.3-5.1
	s3.7-2,5.7-2.4C36,17.2,38.5,17,41,16.6L41,16.6z"/>
<path class="st0" d="M128.6,146c-0.4-0.1-1.6-1.4-1.8-1.7c-0.5-0.7-0.6-1.5-0.5-2.2c0.2-1.1,1-2,1.7-2.8c0.3-0.3,0.6-0.7,1.2-0.8
	c0.6-0.2,1.4,0,2.2,0.2c4.2,1.1,8.5,2.2,12.7,3.3c0.7,0.2,1.5,0.4,2,0.8c0.7,0.6,0.9,1.4,0.9,2.1c-0.2,1.7-1.9,2.9-3.9,3.3
	c-2,0.4-4.3,0.2-6.6-0.3C133.8,147.4,131.2,146.7,128.6,146L128.6,146z"/>
<g>
	<g class="st1">
		<path class="st2" d="M187.4,102.1c-0.5,0-0.9-0.2-1.2-0.5c-0.3-0.3-0.4-0.8-0.3-1.3l8.3-38.6h-13.1c-0.5,0-0.9-0.2-1.2-0.5
			c-0.3-0.3-0.4-0.7-0.3-1.2l1.4-6.5c0.1-0.5,0.3-1,0.8-1.3c0.4-0.3,0.9-0.5,1.4-0.5h37.7c0.5,0,0.9,0.2,1.2,0.5
			c0.3,0.3,0.3,0.8,0.3,1.3l-1.4,6.5c-0.1,0.5-0.3,0.9-0.7,1.2c-0.4,0.3-0.8,0.5-1.4,0.5h-13l-8.3,38.6c-0.1,0.5-0.3,1-0.8,1.3
			c-0.4,0.3-0.9,0.5-1.4,0.5H187.4z"/>
		<path class="st2" d="M219.9,102.1c-0.5,0-0.9-0.2-1.2-0.5c-0.3-0.3-0.4-0.8-0.3-1.3l7.2-33.8c0.1-0.5,0.4-1,0.8-1.3
			s0.9-0.5,1.4-0.5h7.2c0.5,0,0.9,0.2,1.2,0.5c0.2,0.3,0.3,0.8,0.2,1.3l-7.2,33.8c-0.1,0.5-0.3,1-0.7,1.3c-0.4,0.3-0.8,0.5-1.4,0.5
			H219.9z M228.9,58.9c-0.5,0-0.9-0.2-1.2-0.5c-0.3-0.3-0.3-0.8-0.3-1.3l1.2-5.8c0.1-0.5,0.3-1,0.8-1.3c0.4-0.4,0.9-0.5,1.4-0.5h7.6
			c0.5,0,0.9,0.2,1.2,0.5c0.3,0.4,0.3,0.8,0.3,1.3l-1.3,5.8c0,0.5-0.3,1-0.7,1.3c-0.4,0.3-0.9,0.5-1.4,0.5H228.9z"/>
		<path class="st2" d="M239.7,102.1c-0.5,0-0.9-0.2-1.2-0.5c-0.3-0.3-0.4-0.8-0.3-1.3l7.2-33.8c0.1-0.5,0.4-1,0.8-1.3
			s0.9-0.5,1.4-0.5h6.7c0.5,0,0.9,0.2,1.1,0.5c0.3,0.3,0.3,0.8,0.3,1.3l-0.5,2.4c0.9-0.9,1.8-1.7,2.8-2.5c1-0.7,2.1-1.3,3.5-1.8
			c1.3-0.5,2.9-0.7,4.6-0.7c2.8,0,5.1,0.6,6.8,1.7c1.8,1.1,3,2.7,3.6,4.7c1.5-1.9,3.2-3.4,5.2-4.6c2-1.2,4.3-1.8,7-1.8
			c2.6,0,4.8,0.6,6.7,1.7s3.2,2.9,4,5.2c0.8,2.3,0.8,5.3,0,9l-4.4,20.5c-0.1,0.5-0.3,1-0.8,1.3c-0.4,0.3-0.9,0.5-1.3,0.5h-7.1
			c-0.5,0-0.9-0.2-1.2-0.5c-0.3-0.3-0.4-0.8-0.3-1.3l4.3-19.9c0.4-2,0.4-3.5,0.2-4.6c-0.3-1.1-0.8-1.9-1.5-2.4
			c-0.8-0.5-1.8-0.7-3-0.7c-1,0-2,0.2-3.1,0.7c-1.1,0.5-2.1,1.3-3,2.4c-0.9,1.1-1.6,2.7-1.9,4.6l-4.3,19.9c-0.1,0.5-0.3,1-0.7,1.3
			c-0.4,0.3-0.8,0.5-1.4,0.5h-7.1c-0.5,0-0.9-0.2-1.2-0.5c-0.3-0.3-0.3-0.8-0.3-1.3l4.2-19.9c0.4-2,0.5-3.5,0.2-4.6
			c-0.3-1.1-0.8-1.9-1.6-2.4c-0.8-0.5-1.7-0.7-2.8-0.7c-1,0-2.1,0.3-3.2,0.8c-1.1,0.5-2.1,1.3-3,2.4c-0.9,1.1-1.5,2.6-2,4.5l-4.2,20
			c-0.1,0.5-0.3,1-0.8,1.3c-0.4,0.3-0.9,0.5-1.3,0.5H239.7z"/>
		<path class="st2" d="M320.9,102.9c-3.6,0-6.7-0.7-9.1-2.1c-2.4-1.4-4.1-3.4-5-6.1c-0.9-2.7-1-6-0.4-9.9c0.1-0.4,0.2-0.9,0.3-1.5
			c0.1-0.6,0.3-1.2,0.4-1.5c1-3.7,2.5-6.9,4.5-9.5c2-2.7,4.6-4.7,7.6-6.1c3-1.4,6.3-2.1,9.9-2.1c4,0,7.2,0.8,9.5,2.5
			c2.3,1.7,3.9,3.9,4.6,6.8c0.8,2.9,0.8,6.1,0,9.8l-0.3,1.7c-0.1,0.5-0.4,0.9-0.8,1.2c-0.4,0.3-0.9,0.5-1.4,0.5h-23.5
			c0,0,0,0.1,0,0.3c0,0.1-0.1,0.2-0.1,0.3c-0.2,1.5-0.2,2.9,0,4.2c0.2,1.3,0.8,2.3,1.7,3.1c0.9,0.8,2.1,1.2,3.5,1.2
			c1.2,0,2.2-0.2,3-0.5c0.9-0.3,1.6-0.7,2.2-1.2c0.6-0.5,1.1-0.9,1.4-1.2c0.5-0.5,0.9-0.8,1.2-0.9c0.3-0.1,0.7-0.2,1.3-0.2h7.5
			c0.5,0,0.8,0.1,1.1,0.4c0.2,0.3,0.3,0.6,0.1,1.1c-0.2,0.8-0.8,1.7-1.8,2.8c-1,1.1-2.3,2.2-4,3.3c-1.7,1.1-3.7,2-5.9,2.7
			C326.2,102.5,323.7,102.9,320.9,102.9z M318.7,79.9h14.1v-0.1c0.4-1.7,0.5-3.2,0.2-4.5c-0.3-1.3-0.9-2.3-1.8-3
			c-0.9-0.7-2.1-1.1-3.6-1.1c-1.5,0-2.8,0.4-4,1.1c-1.2,0.7-2.2,1.7-3,3c-0.8,1.3-1.4,2.8-1.8,4.5V79.9z"/>
		<path class="st2" d="M360.9,102.9c-3,0-5.5-0.3-7.5-1c-2-0.7-3.5-1.5-4.6-2.6c-1.1-1-1.9-2-2.3-3.1c-0.4-1-0.6-1.9-0.5-2.6
			c0.1-0.5,0.3-1,0.8-1.3c0.4-0.3,0.8-0.5,1.3-0.5h6.9c0.2,0,0.3,0,0.5,0.1c0.1,0,0.3,0.2,0.4,0.4c0.5,0.4,1.1,0.9,1.6,1.5
			c0.6,0.6,1.2,1,2.1,1.4c0.8,0.4,1.9,0.6,3.2,0.6c1.6,0,3-0.3,4.2-1c1.2-0.6,2-1.6,2.2-2.8c0.2-0.9,0.1-1.6-0.3-2.2
			c-0.4-0.6-1.2-1.1-2.5-1.6c-1.3-0.5-3.2-1-5.8-1.6c-2.4-0.6-4.5-1.3-6.1-2.3c-1.6-1-2.7-2.2-3.3-3.6c-0.6-1.5-0.7-3.2-0.3-5.3
			c0.4-1.9,1.4-3.7,2.9-5.4c1.5-1.7,3.6-3.2,6.1-4.3c2.6-1.1,5.6-1.7,9-1.7c2.6,0,4.9,0.3,6.8,1c1.9,0.6,3.4,1.5,4.5,2.4
			c1.1,1,1.9,2,2.4,3c0.5,1,0.6,1.9,0.5,2.7c0,0.5-0.3,0.9-0.7,1.2c-0.4,0.3-0.8,0.5-1.3,0.5h-6.3c-0.2,0-0.4,0-0.6-0.1
			c-0.2-0.1-0.3-0.2-0.4-0.3c-0.5-0.4-1-0.8-1.5-1.3c-0.5-0.5-1.1-0.9-1.8-1.3c-0.7-0.4-1.8-0.6-3.1-0.6c-1.6,0-2.9,0.3-3.9,1
			c-1,0.7-1.6,1.6-1.8,2.6c-0.1,0.7-0.1,1.3,0.3,1.9c0.3,0.6,1.1,1.1,2.3,1.6c1.2,0.5,3.2,1,5.8,1.5c3.1,0.6,5.5,1.4,7.2,2.6
			c1.7,1.2,2.8,2.5,3.3,4c0.5,1.5,0.6,3.1,0.2,4.9c-0.4,2.3-1.5,4.3-3.2,6c-1.7,1.8-4,3.1-6.8,4.1
			C367.9,102.4,364.6,102.9,360.9,102.9z"/>
		<path class="st2" d="M402.7,102.1c-3.3,0-5.9-0.5-7.8-1.5c-2-1-3.3-2.5-3.9-4.6c-0.6-2.1-0.7-4.7,0-7.8l3.2-15.1h-5.6
			c-0.5,0-0.9-0.2-1.2-0.5c-0.3-0.3-0.3-0.8-0.3-1.3l1-4.9c0.1-0.5,0.4-1,0.8-1.3s0.9-0.5,1.4-0.5h5.7l2.5-11.9
			c0.1-0.5,0.3-1,0.8-1.3c0.4-0.3,0.9-0.5,1.4-0.5h7.1c0.5,0,0.9,0.2,1.2,0.5c0.3,0.3,0.4,0.8,0.3,1.3l-2.6,11.9h9
			c0.5,0,0.9,0.2,1.2,0.5s0.3,0.8,0.2,1.3l-1,4.9c-0.1,0.5-0.3,1-0.8,1.3c-0.4,0.3-0.9,0.5-1.4,0.5h-9l-3,14.3
			c-0.2,1.2-0.4,2.2-0.4,3.1c0,0.9,0.2,1.6,0.7,2c0.5,0.5,1.4,0.7,2.6,0.7h5.5c0.5,0,0.9,0.2,1.1,0.5c0.3,0.3,0.3,0.7,0.3,1.2
			l-1.2,5.3c-0.1,0.5-0.3,1-0.7,1.3c-0.4,0.3-0.8,0.5-1.4,0.5H402.7z"/>
		<path class="st2" d="M430.3,102.9c-2.4,0-4.5-0.4-6.2-1.2c-1.8-0.8-3.1-1.9-4.1-3.5c-1-1.5-1.7-3.3-2-5.4
			c-0.3-2.1-0.3-4.4,0.2-6.9c0.1-0.9,0.3-1.7,0.5-2.5s0.3-1.5,0.5-2.4c0.6-2.5,1.5-4.8,2.5-6.8c1.1-2.1,2.4-3.9,3.9-5.4
			c1.5-1.5,3.3-2.7,5.4-3.5c2-0.8,4.3-1.3,6.9-1.3c3,0,5.2,0.4,6.8,1.3c1.5,0.9,2.7,2,3.6,3.3l0.4-2.1c0.1-0.5,0.3-1,0.8-1.3
			c0.4-0.3,0.9-0.5,1.3-0.5h6.8c0.5,0,0.9,0.2,1.2,0.5c0.3,0.3,0.3,0.8,0.3,1.3l-7.2,33.8c-0.1,0.5-0.3,1-0.7,1.3
			c-0.4,0.3-0.8,0.5-1.4,0.5h-6.8c-0.5,0-0.9-0.2-1.2-0.5c-0.3-0.3-0.3-0.8-0.3-1.3l0.5-2.4c-1.4,1.4-3,2.6-4.8,3.6
			C435.4,102.4,433.1,102.9,430.3,102.9z M434.4,94.2c1.8,0,3.4-0.4,4.6-1.2c1.3-0.8,2.3-1.8,3.1-3.1c0.8-1.2,1.4-2.6,1.8-4
			c0.2-0.9,0.5-1.8,0.6-2.7c0.2-0.9,0.4-1.8,0.5-2.7c0.2-1.3,0.2-2.6,0-3.8c-0.2-1.2-0.8-2.1-1.7-2.9c-0.9-0.8-2.2-1.2-3.9-1.2
			c-1.7,0-3.1,0.4-4.3,1.2c-1.2,0.8-2.2,1.8-3,3.1c-0.8,1.3-1.4,2.7-1.8,4.2c-0.2,0.7-0.4,1.5-0.6,2.2c-0.2,0.8-0.3,1.5-0.4,2.2
			c-0.2,1.5-0.2,3-0.1,4.2c0.1,1.3,0.6,2.3,1.4,3.1C431.5,93.8,432.7,94.2,434.4,94.2z"/>
		<path class="st2" d="M462.3,102.1c-0.5,0-0.9-0.2-1.2-0.5c-0.3-0.3-0.4-0.8-0.3-1.3l7.2-33.8c0.1-0.5,0.4-1,0.8-1.3
			c0.4-0.3,0.9-0.5,1.4-0.5h6.7c0.5,0,0.9,0.2,1.1,0.5c0.3,0.3,0.3,0.8,0.3,1.3l-0.5,2.4c0.9-0.9,1.8-1.7,2.8-2.5
			c1-0.7,2.1-1.3,3.5-1.8c1.3-0.5,2.9-0.7,4.6-0.7c2.8,0,5.1,0.6,6.8,1.7c1.8,1.1,3,2.7,3.6,4.7c1.5-1.9,3.2-3.4,5.2-4.6
			c2-1.2,4.3-1.8,7-1.8c2.6,0,4.8,0.6,6.7,1.7s3.2,2.9,4,5.2c0.8,2.3,0.8,5.3,0,9l-4.4,20.5c-0.1,0.5-0.3,1-0.8,1.3
			c-0.4,0.3-0.9,0.5-1.3,0.5h-7.1c-0.5,0-0.9-0.2-1.2-0.5c-0.3-0.3-0.4-0.8-0.3-1.3l4.3-19.9c0.4-2,0.4-3.5,0.2-4.6
			c-0.3-1.1-0.8-1.9-1.5-2.4c-0.8-0.5-1.8-0.7-3-0.7c-1,0-2,0.2-3.1,0.7c-1.1,0.5-2.1,1.3-3,2.4c-0.9,1.1-1.6,2.7-1.9,4.6l-4.3,19.9
			c-0.1,0.5-0.3,1-0.7,1.3c-0.4,0.3-0.8,0.5-1.4,0.5h-7.1c-0.5,0-0.9-0.2-1.2-0.5c-0.3-0.3-0.3-0.8-0.3-1.3l4.2-19.9
			c0.4-2,0.5-3.5,0.2-4.6s-0.8-1.9-1.6-2.4c-0.8-0.5-1.7-0.7-2.8-0.7c-1,0-2.1,0.3-3.2,0.8c-1.1,0.5-2.1,1.3-3,2.4
			c-0.9,1.1-1.5,2.6-2,4.5l-4.2,20c-0.1,0.5-0.3,1-0.8,1.3c-0.4,0.3-0.9,0.5-1.3,0.5H462.3z"/>
		<path class="st2" d="M524.8,115.8c-0.5,0-0.9-0.2-1.2-0.5c-0.3-0.3-0.3-0.8-0.3-1.3l10.2-47.5c0.1-0.5,0.3-1,0.8-1.3
			c0.4-0.3,0.9-0.5,1.3-0.5h6.9c0.5,0,0.9,0.2,1.1,0.5c0.3,0.3,0.3,0.8,0.3,1.3l-0.6,2.7c1.5-1.5,3.1-2.8,4.9-3.8
			c1.8-1,4.1-1.5,6.9-1.5c2.4,0,4.5,0.4,6.3,1.2c1.8,0.8,3.1,1.9,4.2,3.5c1,1.5,1.7,3.3,2.1,5.4s0.3,4.4-0.1,6.9
			c-0.1,0.9-0.3,1.7-0.5,2.4c-0.2,0.7-0.4,1.5-0.6,2.4c-0.6,2.4-1.5,4.7-2.5,6.8c-1.1,2.1-2.4,3.9-3.9,5.4c-1.5,1.5-3.3,2.7-5.3,3.5
			c-2,0.8-4.2,1.3-6.7,1.3c-2.6,0-4.7-0.4-6.4-1.3c-1.7-0.9-3-2.1-3.8-3.6l-3.5,16.1c-0.1,0.5-0.3,1-0.8,1.3
			c-0.4,0.3-0.9,0.5-1.3,0.5H524.8z M546,94.2c1.7,0,3.2-0.4,4.4-1.2c1.2-0.8,2.2-1.8,3-3.1s1.4-2.7,1.9-4.2
			c0.2-0.7,0.4-1.5,0.6-2.2c0.1-0.8,0.3-1.5,0.4-2.2c0.2-1.5,0.2-3,0-4.2s-0.7-2.3-1.5-3.1c-0.8-0.8-2.1-1.2-3.8-1.2
			c-1.8,0-3.3,0.4-4.6,1.2c-1.3,0.8-2.4,1.8-3.2,3.1c-0.8,1.2-1.4,2.6-1.8,4c-0.2,0.9-0.5,1.8-0.6,2.7c-0.2,0.9-0.4,1.8-0.5,2.7
			c-0.2,1.3-0.2,2.6,0,3.8c0.3,1.2,0.9,2.1,1.8,2.9C543,93.8,544.3,94.2,546,94.2z"/>
		<path class="st2" d="M608.7,102.9c-4.5,0-8.2-0.8-11.1-2.3s-4.9-3.7-6-6.6c-1.1-2.9-1.3-6.4-0.6-10.5c0.4-2.1,0.8-4.3,1.3-6.6
			c0.5-2.4,1-4.6,1.5-6.7c1-4,2.6-7.5,5-10.3c2.4-2.8,5.3-5,8.9-6.5c3.6-1.5,7.5-2.3,12-2.3c3.6,0,6.6,0.5,9.1,1.4
			c2.5,0.9,4.5,2.1,6,3.6c1.5,1.5,2.6,3.1,3.1,4.8c0.6,1.7,0.7,3.4,0.4,5c0,0.4-0.3,0.8-0.6,1.1c-0.4,0.3-0.8,0.5-1.3,0.5h-8.9
			c-0.5,0-0.8-0.1-1-0.3c-0.2-0.2-0.4-0.5-0.5-0.9c-0.1-0.9-0.4-1.7-1-2.6c-0.6-0.9-1.4-1.6-2.6-2.3c-1.2-0.6-2.7-0.9-4.8-0.9
			c-3,0-5.5,0.8-7.6,2.4c-2.1,1.6-3.6,4.2-4.5,7.8c-0.5,2.1-1,4.2-1.5,6.3c-0.5,2.1-0.9,4.2-1.3,6.3c-0.6,3.7-0.2,6.4,1.3,8.1
			c1.5,1.6,3.7,2.4,6.7,2.4c2,0,3.9-0.3,5.6-1c1.7-0.7,3.2-1.8,4.4-3.3c1.2-1.5,2.1-3.4,2.6-5.7l0.4-1.8h-7.8
			c-0.5,0-0.9-0.2-1.1-0.5s-0.3-0.8-0.3-1.3l1-4.6c0.1-0.5,0.3-1,0.8-1.3c0.4-0.3,0.9-0.5,1.4-0.5h17.6c0.5,0,0.9,0.2,1.2,0.5
			c0.3,0.3,0.3,0.8,0.3,1.3l-1.7,7.8c-0.8,4.1-2.4,7.7-4.9,10.6c-2.4,2.9-5.5,5.2-9.2,6.7C617.3,102.1,613.2,102.9,608.7,102.9z"/>
		<path class="st2" d="M655.5,102.9c-3.6,0-6.7-0.7-9.1-2.1c-2.4-1.4-4.1-3.4-5-6.1c-0.9-2.7-1-6-0.4-9.9c0.1-0.4,0.2-0.9,0.3-1.5
			c0.1-0.6,0.3-1.2,0.4-1.5c1-3.7,2.5-6.9,4.5-9.5s4.6-4.7,7.6-6.1c3-1.4,6.3-2.1,9.9-2.1c4,0,7.2,0.8,9.5,2.5s3.9,3.9,4.6,6.8
			c0.8,2.9,0.8,6.1,0,9.8l-0.3,1.7c-0.1,0.5-0.4,0.9-0.8,1.2c-0.4,0.3-0.9,0.5-1.4,0.5h-23.5c0,0,0,0.1,0,0.3c0,0.1-0.1,0.2-0.1,0.3
			c-0.2,1.5-0.2,2.9,0,4.2c0.2,1.3,0.8,2.3,1.7,3.1c0.9,0.8,2.1,1.2,3.5,1.2c1.2,0,2.2-0.2,3-0.5c0.9-0.3,1.6-0.7,2.2-1.2
			c0.6-0.5,1.1-0.9,1.4-1.2c0.5-0.5,0.9-0.8,1.2-0.9c0.3-0.1,0.7-0.2,1.3-0.2h7.5c0.5,0,0.8,0.1,1.1,0.4c0.2,0.3,0.3,0.6,0.1,1.1
			c-0.2,0.8-0.8,1.7-1.8,2.8c-1,1.1-2.3,2.2-4,3.3c-1.7,1.1-3.7,2-5.9,2.7C660.8,102.5,658.3,102.9,655.5,102.9z M653.4,79.9h14.1
			v-0.1c0.4-1.7,0.5-3.2,0.2-4.5c-0.3-1.3-0.9-2.3-1.8-3s-2.1-1.1-3.6-1.1c-1.5,0-2.8,0.4-4,1.1c-1.2,0.7-2.2,1.7-3,3
			c-0.8,1.3-1.4,2.8-1.8,4.5V79.9z"/>
		<path class="st2" d="M681.7,102.1c-0.5,0-0.9-0.2-1.2-0.5c-0.3-0.3-0.4-0.8-0.3-1.3l7.2-33.8c0.1-0.5,0.4-1,0.8-1.3
			c0.4-0.3,0.9-0.5,1.4-0.5h7.1c0.5,0,0.9,0.2,1.2,0.5c0.2,0.3,0.3,0.8,0.2,1.3l-0.6,2.8c1.5-1.5,3.3-2.8,5.4-3.8
			c2.1-1,4.5-1.5,7.1-1.5c3.2,0,5.7,0.6,7.7,1.9c1.9,1.3,3.3,3.1,4,5.5c0.7,2.4,0.7,5.4,0,8.8l-4.3,20.1c-0.1,0.5-0.3,1-0.8,1.3
			c-0.4,0.3-0.9,0.5-1.4,0.5h-7.6c-0.5,0-0.9-0.2-1.2-0.5c-0.3-0.3-0.4-0.8-0.3-1.3l4.2-19.7c0.6-2.7,0.5-4.7-0.2-6
			c-0.7-1.3-2.3-2-4.8-2c-2.4,0-4.5,0.7-6.2,2.1c-1.7,1.4-2.8,3.4-3.3,5.9l-4.2,19.7c-0.1,0.5-0.3,1-0.8,1.3
			c-0.4,0.3-0.9,0.5-1.3,0.5H681.7z"/>
		<path class="st2" d="M727.3,102.1c-0.5,0-0.9-0.2-1.2-0.5c-0.3-0.3-0.4-0.8-0.3-1.3l7.2-33.8c0.1-0.5,0.4-1,0.8-1.3
			c0.4-0.3,0.9-0.5,1.4-0.5h7.2c0.5,0,0.9,0.2,1.2,0.5c0.2,0.3,0.3,0.8,0.2,1.3l-7.2,33.8c-0.1,0.5-0.3,1-0.7,1.3
			c-0.4,0.3-0.8,0.5-1.4,0.5H727.3z M736.3,58.9c-0.5,0-0.9-0.2-1.2-0.5c-0.3-0.3-0.3-0.8-0.3-1.3l1.2-5.8c0.1-0.5,0.3-1,0.8-1.3
			c0.4-0.4,0.9-0.5,1.4-0.5h7.6c0.5,0,0.9,0.2,1.2,0.5c0.3,0.4,0.3,0.8,0.3,1.3l-1.3,5.8c0,0.5-0.3,1-0.7,1.3
			c-0.4,0.3-0.9,0.5-1.4,0.5H736.3z"/>
		<path class="st2" d="M759.6,102.9c-3,0-5.4-0.6-7.4-1.9c-2-1.3-3.3-3.1-4-5.5c-0.7-2.4-0.7-5.4,0.1-8.8l4.2-20.1
			c0.1-0.5,0.3-1,0.8-1.3c0.4-0.3,0.9-0.5,1.4-0.5h7.6c0.5,0,0.9,0.2,1.1,0.5s0.3,0.8,0.3,1.3l-4.2,19.7c-0.4,1.8-0.5,3.3-0.4,4.5
			c0.1,1.2,0.6,2.1,1.5,2.7c0.9,0.6,2.1,0.9,3.8,0.9c2.3,0,4.3-0.7,6-2.1c1.7-1.4,2.9-3.4,3.4-5.9l4.2-19.7c0.1-0.5,0.4-1,0.8-1.3
			s0.9-0.5,1.4-0.5h7.6c0.5,0,0.9,0.2,1.2,0.5c0.2,0.3,0.3,0.8,0.2,1.3l-7.2,33.8c-0.1,0.5-0.3,1-0.7,1.3c-0.4,0.3-0.8,0.5-1.4,0.5
			h-7.1c-0.5,0-0.9-0.2-1.2-0.5c-0.3-0.3-0.3-0.8-0.3-1.3l0.6-2.8c-1.1,1.1-2.1,2.1-3.3,2.9s-2.4,1.4-3.8,1.8
			C763.5,102.7,761.7,102.9,759.6,102.9z"/>
		<path class="st2" d="M806.4,102.9c-3,0-5.5-0.3-7.5-1c-2-0.7-3.5-1.5-4.6-2.6s-1.9-2-2.3-3.1c-0.4-1-0.6-1.9-0.5-2.6
			c0.1-0.5,0.3-1,0.8-1.3c0.4-0.3,0.8-0.5,1.3-0.5h6.9c0.2,0,0.3,0,0.5,0.1c0.1,0,0.3,0.2,0.4,0.4c0.5,0.4,1.1,0.9,1.6,1.5
			c0.6,0.6,1.2,1,2.1,1.4c0.8,0.4,1.9,0.6,3.2,0.6c1.6,0,3-0.3,4.2-1c1.2-0.6,2-1.6,2.2-2.8c0.2-0.9,0.1-1.6-0.3-2.2
			c-0.4-0.6-1.2-1.1-2.5-1.6c-1.3-0.5-3.2-1-5.8-1.6c-2.4-0.6-4.5-1.3-6.1-2.3c-1.6-1-2.7-2.2-3.3-3.6c-0.6-1.5-0.7-3.2-0.3-5.3
			c0.4-1.9,1.4-3.7,2.9-5.4c1.5-1.7,3.6-3.2,6.1-4.3c2.6-1.1,5.6-1.7,9-1.7c2.6,0,4.9,0.3,6.8,1c1.9,0.6,3.4,1.5,4.5,2.4
			c1.1,1,1.9,2,2.4,3c0.5,1,0.6,1.9,0.5,2.7c0,0.5-0.3,0.9-0.7,1.2c-0.4,0.3-0.8,0.5-1.3,0.5h-6.3c-0.2,0-0.4,0-0.6-0.1
			c-0.2-0.1-0.3-0.2-0.4-0.3c-0.5-0.4-1-0.8-1.5-1.3c-0.5-0.5-1.1-0.9-1.8-1.3c-0.7-0.4-1.8-0.6-3.1-0.6c-1.6,0-2.9,0.3-3.9,1
			c-1,0.7-1.6,1.6-1.8,2.6c-0.1,0.7-0.1,1.3,0.3,1.9c0.3,0.6,1.1,1.1,2.3,1.6c1.2,0.5,3.2,1,5.8,1.5c3.1,0.6,5.5,1.4,7.2,2.6
			c1.7,1.2,2.8,2.5,3.3,4c0.5,1.5,0.6,3.1,0.2,4.9c-0.4,2.3-1.5,4.3-3.2,6c-1.7,1.8-4,3.1-6.8,4.1
			C813.4,102.4,810.1,102.9,806.4,102.9z"/>
	</g>
</g>
</svg>
