<?xml version="1.0" encoding="UTF-8"?><svg id="Layer_1" xmlns="http://www.w3.org/2000/svg" viewBox="0 0 830.99 165.87"><defs><style>.cls-1{fill:#fb6f92;}.cls-2{fill:#ffe5ec;font-family:RubikLight-SemiBoldItalic, 'Rubik Light';font-size:72px;font-style:italic;font-variation-settings:'wght' 600;font-weight:600;}</style></defs><path class="cls-1" d="m49.15,45.49c-4.73.19-9.48.24-14.2.63-5.98.49-11.93,1.28-17.9,1.91-1.62.17-3.26.4-4.88.31-2.03-.12-3.89-2.24-4.04-4.61-.14-2.22,1.06-3.91,3.15-4.48,3.77-1.03,7.58-2.07,11.44-2.61,9.69-1.34,19.38-2.74,29.13-3.46,11.16-.83,22.37-1.02,33.56-1.32,1.91-.05,3.84.73,5.76,1.1,2.16.41,2.98,2.15,3.19,3.89.26,2.21.52,4.55-1.81,6.28-1.51,1.12-2.94,1.57-4.76,1.5-3.25-.11-6.5-.03-9.75-.03"/><path class="cls-1" d="m96.48,69.69c9.88.29,19.76.55,29.64.9,7.62.27,15.24.66,22.86,1,4.5.21,7.14,3.74,5.44,7.61-.51,1.18-1.87,2.38-3.1,2.77-2.16.69-4.51.97-6.79,1.06-6.72.28-13.44.4-20.16.57-11.46.3-22.91.66-34.37.82-1.97.03-4.26-.37-5.85-1.41-3.03-1.97-3.73-5.16-2.63-8.57.77-2.4,3.92-4.62,6.98-4.74,2.66-.1,5.33-.02,7.99-.03Z"/><path class="cls-1" d="m12,71.59c12.18-.52,23.6-1.06,35.02-1.49,6.15-.23,12.3-.31,18.45-.41,2.99-.05,5.79.78,7.05,3.67,1.28,2.93,1.57,6.24-1.05,8.62-1.4,1.27-3.56,2.4-5.37,2.4-13.23.04-26.46-.13-39.68-.45-5.55-.13-10.86.02-16.4-.33-1.64-.11-3.59-.46-5.15-.8-3.3-.72-5.15-3.33-4.83-6.22.34-3.09,2.31-4.73,6.23-4.97,2.16-.13,4.33-.02,5.73-.02Z"/><path class="cls-1" d="m71.29,62.87c-9.42,0-18.84.08-28.25-.07-1.77-.03-3.88-.55-5.23-1.61-2.55-2.02-2.04-7.4,2.51-8.13.81-.13,1.6-.39,2.41-.41,6.97-.2,13.94-.39,20.91-.54,7.57-.16,15.15-.44,22.72-.36,7.47.08,14.93.52,22.4.85,1.56.07,3.11.28,4.65.53,2.05.33,3.67,2.58,3.65,4.96-.01,2.18-1.88,4.4-4.09,4.61-2.48.24-4.97.44-7.45.39"/><path class="cls-1" d="m80.77,13.55c5.75.51,11.44.99,17.13,1.53,6.82.64,13.67,1.06,20.42,2.1,3.99.61,7.91,2.03,11.7,3.49,1.91.74,3.64,2.24,3.52,4.82-.1,2.01-1.06,3.19-3.06,3.06-3.61-.24-7.22-.63-10.82-1.06-3.42-.41-6.81-1.17-10.23-1.38-9.99-.62-20-1.26-30-1.46-7.4-.15-14.81.33-22.21.64-2.69.11-4.43-.96-5.32-3.45-.77-2.14-.12-5.11,1.98-6.17,1.66-.84,3.79-.86,5.73-.98,7.06-.44,14.12-.77,21.17-1.14Z"/><path class="cls-1" d="m70.02,91.58c8.58,0,17.16-.03,25.74.01,3.87.02,6.13,2.22,5.87,5.71-.2,2.73-1.45,4.69-5.41,4.74-10.64.15-21.28.1-31.92.08-6.66-.01-13.33-.06-19.99-.17-3.41-.06-6.08-2.76-6.01-5.88.06-2.59,1.39-4.27,4-4.5,2.56-.23,5.15-.11,7.73-.12"/><path class="cls-1" d="m72.58,140.66c-7.9-.03-15.95-.96-23.57-1.94-5.23-.67-10.44-1.52-15.61-2.52-3.86-.75-8.74-.95-10.63-5-1.23-2.64,2.34-5.96,5.76-5.49,3.5.48,6.99,1.02,10.49,1.44,3.13.38,6.72.83,10.05.99,11.12.54,22.24.98,33.36,1.41,3.06.12,5.64,1.85,5.65,5.12,0,1.94-.78,3.88-2.62,4.75-.92.44-1.95.6-2.97.72-3.25.38-6.57.54-9.92.53Z"/><path class="cls-1" d="m84.93,109.93c8.89-.44,17.77-.92,26.66-1.29,4.46-.18,6.82,2.23,6.77,6.59-.03,2.76-2.07,4.79-5.55,5.23-3.76.47-7.54.93-11.33,1.08-9.71.38-19.42.67-29.13.82-4.01.06-6.53-2.55-6.58-6.24-.05-3.74,2.36-6.37,6.15-6.45"/><path class="cls-1" d="m49.02,121.61s-2.99-.01-3,0c-3.48-.84-3.29-.56-6.79-1.22-3.96-.74-7.91-1.52-11.87-2.24-4.6-.82-9.18-1.79-13.8-2.52-3.18-.5-5.67-2.59-5.52-5.02.19-3.19,2.58-5.07,6.26-4.77,8.82.74,17.64,1.53,26.45,2.34,4.26.39,8.52.77,12.76,1.34,2.1.28,4.12,1.28,4.68,3.47,1.24,4.9-2.3,8.2-6.9,8.51-.56.04-1.27.1-2.27.1Z"/><path class="cls-1" d="m111.01,33.72c.37.02.73.06,1.07.09,3.35.34,6.69,1.01,10.02,1.49,3.59.52,7.18,1.04,10.75,1.69,3.29.6,6.55,1.3,9.81,2.04,3.04.69,4.28,2.56,3.88,5.61-.29,2.19-2.42,4.05-4.9,3.84-8.18-.71-16.34-1.59-24.52-2.36-3.04-.28-6.1-.41-9.15-.62-2.61-.18-4.89-2.02-5.61-4.49-.71-2.45.03-5.44,2.29-6.52,1.76-.84,4.27-.92,6.36-.78Z"/><path class="cls-1" d="m118.65,91.72c9.43-.63,18.87-1.3,28.31-1.86,1.43-.08,3.08.01,4.3.64,2.59,1.33,2.59,4.65.06,6.14-1.45.85-3.12,1.62-4.76,1.81-4.81.55-9.66.71-14.48,1.18-4.31.42-8.6,1.1-12.91,1.59-1.88.21-3.81.41-5.69.27-2.33-.17-3.93-2.76-3.76-5.62.16-2.64,1.85-4.3,4.42-4.32"/><path class="cls-1" d="m108.66,128.27c4.55-.65,9.1-1.32,13.65-1.93,1.88-.25,3.78-.5,5.67-.5,2.23,0,3.9,1.86,4.08,4.22.15,1.95-1.5,4.16-3.66,4.6-5.71,1.17-11.42,2.33-17.16,3.33-3.22.56-6.49.93-9.75,1.15-3,.21-5.12-1.3-5.38-3.46-.43-3.67,1.41-6.54,4.61-7.05,1.3-.21,2.62-.26,3.94-.36"/><path class="cls-1" d="m97.89,7.3c-8.38-.19-16.76-.54-25.14-.51-5.98.02-11.97.52-17.95.84-1.48.08-2.57-.13-2.8-1.92-.23-1.78.78-2.3,2.22-2.64,3.94-.95,7.83-2.59,11.81-2.81,7.35-.4,14.77-.34,22.11.24,4.62.36,9.13,2.04,13.71,3.05,1.5.33,2.05,1.35,1.57,2.52-.29.71-1.43,1.28-2.29,1.49-1.02.25-2.15.06-3.23.06,0-.11,0-.21,0-.32Z"/><path class="cls-1" d="m55.72,146.7c.06,0,.13,0,.19.01,14.19.94,28.45.92,42.63-.05,1.07-.07,2.18-.14,3.16.3s1.72,1.58,1.34,2.58c-.34.9-1.37,1.29-2.28,1.57-15.63,4.94-32.21,5.43-47.68-.76-.35-.14-.71-.29-.97-.56-.73-.77-.24-2.15.68-2.69.86-.5,1.92-.48,2.92-.42Z"/><path class="cls-1" d="m130.71,63.95c-4.62-.05-6.75-2.66-5.51-7.03.27-.97,1.83-2.22,2.81-2.23,3.58-.01,7.16.43,10.74.73,2.04.17,4.09.24,6.1.58,2.21.38,4.49.75,6.53,1.61,1.63.69,2.38,2.6,1.48,4.15-.68,1.16-2.2,1.99-3.52,2.56-.91.39-2.13.08-3.21.08"/><path class="cls-1" d="m10.18,90.05c5.29.35,10.57.72,15.86,1.03,3.86.23,4.98,1.31,4.97,4.86,0,2.56-3.21,4.51-6.2,4.16-6.03-.71-12.09-1.23-18.1-2.12-1.54-.23-3.3-1.25-4.29-2.45-1.67-2.03-.15-4.94,2.52-5.38.24-.04.5-.05.75-.05,1.5,0,2.99,0,4.49,0,0-.02,0-.04,0-.05Z"/><path class="cls-1" d="m11.04,64.07c-1.83,0-3.67.09-5.5-.02-1.93-.12-3.31-.94-3.45-3.15-.15-2.26.89-3.91,3.01-4.21,6.18-.86,12.4-1.41,18.59-2.16,3.32-.4,6.03,2.31,4.84,6.13-.73,2.34-2.74,2.65-4.51,2.74"/><path class="cls-1" d="m146.56,110.62c.38,2.91-1.18,4.16-4.02,4.87-3.16.79-6.36,1.42-9.56,2.04-2.49.48-4.76-.2-6.04-2.4-1.07-1.84-1.64-4.03.12-5.93.58-.63,1.32-1.42,2.08-1.53,4.22-.62,8.46-1.24,12.72-1.51,3.43-.21,4.71,1.23,4.71,4.46Z"/><path class="cls-1" d="m137.07,132.29c-.29.07-1.45-.66-1.67-.86-.53-.47-.85-1.16-.98-1.85-.19-1.08.05-2.19.28-3.26.1-.43.2-.89.5-1.22.36-.41.93-.54,1.47-.66,3.07-.66,6.14-1.32,9.21-1.98.51-.11,1.06-.22,1.55-.04.65.24,1.04.92,1.19,1.6.37,1.62-.34,3.36-1.51,4.54s-2.75,1.89-4.34,2.36c-1.87.55-3.81.9-5.7,1.37Z"/><path class="cls-1" d="m144.97,163.7c-11.14-3.19-22.14-6.96-32.54-12.14-1.32-.66-2.66-1.36-3.62-2.51s-1.48-2.86-.9-4.32c.61-1.54,2.28-2.39,3.84-2.43s3.04.56,4.47,1.16c11.01,4.57,22.43,9.28,34.38,8.5,4.62-.3,7.48-.74,8.15,4.79.35,2.9-.17,7.36-3.12,8.74-1.45.68-3.09.29-4.59-.11-2.03-.55-4.05-1.1-6.08-1.68Z"/><path class="cls-1" d="m40.97,16.56c.38-.06,1.8.87,2.07,1.12.63.58,1,1.4,1.1,2.21.15,1.26-.24,2.51-.62,3.72-.16.49-.33,1.01-.73,1.36-.5.44-1.24.55-1.93.64-3.98.52-7.96,1.04-11.94,1.56-.67.09-1.37.17-1.99-.07-.81-.32-1.26-1.14-1.4-1.93-.34-1.89.7-3.83,2.29-5.1s3.66-1.95,5.74-2.37c2.44-.49,4.94-.74,7.4-1.14Z"/><path class="cls-1" d="m128.55,146.04c-.41-.1-1.59-1.41-1.8-1.71-.48-.72-.61-1.53-.48-2.22.21-1.09.98-1.96,1.74-2.8.31-.34.63-.7,1.16-.83.64-.17,1.43.03,2.17.22,4.24,1.1,8.49,2.21,12.73,3.31.71.18,1.46.39,2.02.83.74.58.95,1.41.87,2.11-.21,1.68-1.85,2.86-3.87,3.29-2.01.43-4.34.19-6.6-.27-2.65-.54-5.3-1.3-7.95-1.92Z"/><text class="cls-2" transform="translate(175.08 97.58)"><tspan x="0" y="0">Timestamp Genius</tspan></text></svg>